HIERARCHY
ROOT Hips
{
	OFFSET 0.000000 0.000000 0.000000
	CHANNELS 6 Xposition Yposition Zposition Zrotation Yrotation Xrotation 
	JOINT LHipJoint
	{
		OFFSET 0.000000 0.000000 0.000000
		CHANNELS 3 Zrotation Yrotation Xrotation
		JOINT LeftUpLeg
		{
			OFFSET 1.363060 -1.794630 0.839290
			CHANNELS 3 Zrotation Yrotation Xrotation
			JOINT LeftLeg
			{
				OFFSET 2.448110 -6.726130 0.000000
				CHANNELS 3 Zrotation Yrotation Xrotation
				JOINT LeftFoot
				{
					OFFSET 2.562200 -7.039590 0.000000
					CHANNELS 3 Zrotation Yrotation Xrotation
					JOINT LeftToeBase
					{
						OFFSET 0.157640 -0.433110 2.322550
						CHANNELS 3 Zrotation Yrotation Xrotation
						End Site
						{
							OFFSET 0.000000 0.000000 0.000000
						}
					}
				}
			}
		}
	}
	JOINT RHipJoint
	{
		OFFSET 0.000000 0.000000 0.000000
		CHANNELS 3 Zrotation Yrotation Xrotation
		JOINT RightUpLeg
		{
			OFFSET -1.305520 -1.794630 0.839290
			CHANNELS 3 Zrotation Yrotation Xrotation
			JOINT RightLeg
			{
				OFFSET -2.542530 -6.985550 0.000000
				CHANNELS 3 Zrotation Yrotation Xrotation
				JOINT RightFoot
				{
					OFFSET -2.568260 -7.056230 0.000000
					CHANNELS 3 Zrotation Yrotation Xrotation
					JOINT RightToeBase
					{
						OFFSET -0.164730 -0.452590 2.363150
						CHANNELS 3 Zrotation Yrotation Xrotation
						End Site
						{
							OFFSET 0.000000 0.000000 0.000000
						}
					}
				}
			}
		}
	}
	JOINT LowerBack
	{
		OFFSET 0.000000 0.000000 0.000000
		CHANNELS 3 Zrotation Yrotation Xrotation
		JOINT Spine
		{
			OFFSET 0.028270 2.035590 -0.193380
			CHANNELS 3 Zrotation Yrotation Xrotation
			JOINT Spine1
			{
				OFFSET 0.056720 2.048850 -0.042750
				CHANNELS 3 Zrotation Yrotation Xrotation
				JOINT Neck
				{
					OFFSET 0.000000 0.000000 0.000000
					CHANNELS 3 Zrotation Yrotation Xrotation
					JOINT Neck1
					{
						OFFSET -0.054170 1.746240 0.172020
						CHANNELS 3 Zrotation Yrotation Xrotation
						JOINT Head
						{
							OFFSET 0.104070 1.761360 -0.123970
							CHANNELS 3 Zrotation Yrotation Xrotation
							End Site
							{
								OFFSET 0.000000 0.000000 0.000000
							}
						}
					}
				}
				JOINT LeftShoulder
				{
					OFFSET 0.000000 0.000000 0.000000
					CHANNELS 3 Zrotation Yrotation Xrotation
					JOINT LeftArm
					{
						OFFSET 3.362410 1.200890 -0.311210
						CHANNELS 3 Zrotation Yrotation Xrotation
						JOINT LeftForeArm
						{
							OFFSET 4.983000 -0.000000 -0.000000
							CHANNELS 3 Zrotation Yrotation Xrotation
							JOINT LeftHand
							{
								OFFSET 3.483560 -0.000000 -0.000000
								CHANNELS 3 Zrotation Yrotation Xrotation
								JOINT LeftFingerBase
								{
									OFFSET 0.000000 0.000000 0.000000
									CHANNELS 3 Zrotation Yrotation Xrotation
									JOINT LeftHandIndex1
									{
										OFFSET 0.715260 -0.000000 -0.000000
										CHANNELS 3 Zrotation Yrotation Xrotation
										End Site
										{
											OFFSET 0.000000 0.000000 0.000000
										}
									}
								}
								JOINT LThumb
								{
									OFFSET 0.000000 0.000000 0.000000
									CHANNELS 3 Zrotation Yrotation Xrotation
									End Site
									{
										OFFSET 0.000000 0.000000 0.000000
									}
								}
							}
						}
					}
				}
				JOINT RightShoulder
				{
					OFFSET 0.000000 0.000000 0.000000
					CHANNELS 3 Zrotation Yrotation Xrotation
					JOINT RightArm
					{
						OFFSET -3.136600 1.374050 -0.404650
						CHANNELS 3 Zrotation Yrotation Xrotation
						JOINT RightForeArm
						{
							OFFSET -5.241900 -0.000000 -0.000000
							CHANNELS 3 Zrotation Yrotation Xrotation
							JOINT RightHand
							{
								OFFSET -3.444170 -0.000000 -0.000000
								CHANNELS 3 Zrotation Yrotation Xrotation
								JOINT RightFingerBase
								{
									OFFSET 0.000000 0.000000 0.000000
									CHANNELS 3 Zrotation Yrotation Xrotation
									JOINT RightHandIndex1
									{
										OFFSET -0.622530 -0.000000 -0.000000
										CHANNELS 3 Zrotation Yrotation Xrotation
										End Site
										{
											OFFSET 0.000000 0.000000 0.000000
										}
									}
								}
								JOINT RThumb
								{
									OFFSET 0.000000 0.000000 0.000000
									CHANNELS 3 Zrotation Yrotation Xrotation
									End Site
									{
										OFFSET 0.000000 0.000000 0.000000
									}
								}
							}
						}
					}
				}
			}
		}
	}
}
MOTION
Frames: 8
Frame Time: 0.008333
-11.461889 16.927684 -2.096625 11.859649 83.781858 12.774701 -10.488654 1.388150 1.609115 -13.371365 10.622124 -29.103579 -1.998974 0.508138 21.376291 1.631788 10.371583 -2.463147 1.098399 0.000000 -14.136700 9.764442 -4.348002 -0.991153 -0.772877 -12.810642 12.245823 0.763439 -2.216595 23.355323 0.162438 4.084200 10.211201 1.061300 0.000000 -86.215500 -5.121949 0.613921 -3.114063 -1.768458 0.833210 -2.991002 -5.946841 0.789966 2.388969 11.082745 -13.522102 -9.107390 -1.933132 -0.136618 -0.360504 0.000000 0.000000 0.000000 -3.766576 27.130231 -0.040986 -74.997758 29.949429 21.575516 -2.774023 -36.730713 -0.015951 -7.199024 2.982981 -0.196227 0.009525 -0.124654 -0.000000 0.000000 0.000000 0.000000 0.000000 0.000000 0.000000 13.748817 -8.030065 -0.446462 52.723394 8.793371 13.813671 2.270231 45.590066 0.012730 4.052650 4.816201 0.172983 0.046410 -0.106161 0.000000 0.000000 0.000000 0.000000 0.000000 0.000000 0.000000 
-11.275011 16.934538 -2.104700 13.252355 83.829652 13.906561 -10.514155 1.446551 1.554226 -13.396200 10.750823 -28.478137 -1.959032 0.552358 22.139092 1.641622 10.459071 -2.765042 1.030100 0.000000 -14.027600 9.920153 -4.410016 -1.053396 -1.536976 -13.391331 11.383691 0.497095 -2.422194 25.842254 0.047824 4.206967 12.724118 1.341701 0.000000 -88.082700 -5.358623 0.524768 -3.041687 -1.817203 0.763050 -2.984864 -5.965605 0.721120 2.359424 11.148536 -13.655917 -9.072248 -1.953793 -0.138760 -0.352024 0.000000 0.000000 0.000000 -3.752346 26.952797 -0.074792 -74.589422 29.486786 21.428540 -2.791026 -36.644886 -0.015593 -7.070561 2.798913 -0.181106 0.006624 -0.122910 -0.000000 0.000000 0.000000 0.000000 0.000000 0.000000 0.000000 13.909811 -8.179109 -0.483553 53.071135 8.213232 13.881817 2.270270 45.698748 0.012664 4.090721 4.791173 0.173684 0.046175 -0.104790 0.000000 0.000000 0.000000 0.000000 0.000000 0.000000 0.000000 
-11.091109 16.940941 -2.112940 14.858857 83.908796 15.255068 -10.527111 1.497344 1.492696 -13.449786 10.863499 -27.787788 -1.931564 0.581661 22.805278 1.649075 10.505181 -3.215576 0.928600 0.000000 -14.013500 10.089500 -4.445619 -1.127313 -2.291704 -14.019460 10.441983 0.227881 -2.599513 28.386945 -0.121144 4.085544 15.332488 1.567700 -0.000000 -89.143200 -5.596100 0.420366 -2.938399 -1.863426 0.678592 -2.971698 -5.977917 0.638335 2.333755 11.207481 -13.791070 -9.057602 -1.973520 -0.140495 -0.349282 0.000000 0.000000 0.000000 -3.726526 26.762659 -0.093328 -74.216308 28.927735 21.143248 -2.814906 -36.483028 -0.015127 -6.895363 2.624435 -0.165878 0.002859 -0.120975 -0.000000 0.000000 0.000000 0.000000 0.000000 0.000000 0.000000 14.059726 -8.328199 -0.516961 53.447601 7.631143 13.914257 2.271840 45.784249 0.012612 4.116947 4.772826 0.174085 0.046097 -0.103636 0.000000 0.000000 0.000000 0.000000 0.000000 0.000000 0.000000 
-10.910407 16.946596 -2.121336 16.612545 84.013108 16.755666 -10.526517 1.541394 1.425427 -13.521686 10.954288 -27.034912 -1.914537 0.598072 23.379746 1.655792 10.519886 -3.795252 0.799000 -0.000000 -14.070300 10.268326 -4.450080 -1.212413 -3.014318 -14.668096 9.444683 -0.027921 -2.746028 30.958306 -0.335858 3.696763 17.917780 1.686899 0.000000 -89.191000 -5.825073 0.302958 -2.804075 -1.905440 0.581317 -2.951181 -5.983910 0.543160 2.312714 11.259497 -13.926790 -9.062815 -1.991869 -0.141792 -0.352084 0.000000 0.000000 0.000000 -3.687232 26.561310 -0.096954 -73.881573 28.272958 20.722147 -2.845498 -36.250020 -0.014559 -6.675580 2.467743 -0.151144 -0.001723 -0.118853 -0.000000 0.000000 0.000000 0.000000 0.000000 0.000000 0.000000 14.196513 -8.477358 -0.546241 53.850594 7.055097 13.919153 2.275208 45.841835 0.012571 4.134503 4.761513 0.174387 0.046149 -0.102648 0.000000 0.000000 0.000000 0.000000 0.000000 0.000000 0.000000 
-10.732932 16.951484 -2.129792 18.412695 84.119492 18.316853 -10.511550 1.580297 1.354371 -13.605703 11.025577 -26.230803 -1.905843 0.602899 23.859329 1.664871 10.524607 -4.471283 0.650000 0.000001 -14.193100 10.452857 -4.422865 -1.300764 -3.675908 -15.284046 8.384394 -0.257732 -2.864840 33.554638 -0.583768 3.017180 20.336699 1.642000 -0.000001 -88.121800 -6.037721 0.182209 -2.650699 -1.943125 0.479793 -2.927495 -5.986940 0.443904 2.289959 11.304660 -14.042485 -9.079158 -2.010834 -0.142964 -0.357954 0.000000 0.000000 0.000000 -3.636531 26.327199 -0.087833 -73.581903 27.552783 20.152671 -2.881942 -35.969366 -0.013898 -6.410609 2.336791 -0.137604 -0.007019 -0.116593 -0.000000 0.000000 0.000000 0.000000 0.000000 0.000000 0.000000 14.319300 -8.601717 -0.570068 54.285142 6.446916 13.860126 2.281342 45.889596 0.012547 4.165775 4.743611 0.175088 0.046118 -0.101750 0.000000 0.000000 0.000000 0.000000 0.000000 0.000000 0.000000 
-10.558543 16.955504 -2.138444 20.154849 84.230026 19.826599 -10.486135 1.617310 1.281337 -13.682535 11.073473 -25.374597 -1.902934 0.600713 24.257790 1.677262 10.525864 -5.217927 0.486500 -0.000000 -14.353600 10.632436 -4.364977 -1.399001 -4.260015 -15.870228 7.309389 -0.451095 -2.961267 36.114128 -0.844438 2.064752 22.420018 1.399400 0.000000 -86.021100 -6.222718 0.055657 -2.472152 -1.973414 0.371032 -2.896491 -5.984453 0.337962 2.275907 11.343485 -14.167025 -9.112727 -2.027456 -0.143644 -0.368623 0.000000 0.000000 0.000000 -3.573152 26.099783 -0.068353 -73.311788 26.733146 19.482091 -2.923579 -35.625521 -0.013155 -6.109074 2.230669 -0.125160 -0.012953 -0.114104 -0.000000 0.000000 0.000000 0.000000 0.000000 0.000000 0.000000 14.429398 -8.737201 -0.590453 54.739008 5.876660 13.809112 2.289855 45.885015 0.012532 4.185133 4.738669 0.175690 0.046275 -0.100892 0.000000 0.000000 0.000000 0.000000 0.000000 0.000000 0.000000 
-10.387001 16.959077 -2.147202 21.704751 84.313557 21.161736 -10.453320 1.654672 1.209097 -13.747573 11.108671 -24.483026 -1.903998 0.592729 24.566357 1.696013 10.548627 -5.994818 0.317900 0.000000 -14.557600 10.801170 -4.283168 -1.495928 -4.738757 -16.369511 6.192878 -0.608916 -3.045787 38.644743 -1.102066 0.849103 24.017156 0.943600 -0.000001 -83.084700 -6.374963 -0.063634 -2.287939 -1.997377 0.267034 -2.865447 -5.981882 0.236814 2.258652 11.374593 -14.260679 -9.147164 -2.045921 -0.144447 -0.379506 0.000000 0.000000 0.000000 -3.505196 25.842436 -0.041723 -73.060539 25.867057 18.687865 -2.969112 -35.254888 -0.012354 -5.772216 2.153703 -0.114013 -0.019369 -0.111460 -0.000000 0.000000 0.000000 0.000000 0.000000 0.000000 0.000000 14.525970 -8.836880 -0.606389 55.223206 5.268752 13.694042 2.302087 45.858719 0.012529 4.226046 4.726074 0.176891 0.046287 -0.099985 0.000000 0.000000 0.000000 0.000000 0.000000 0.000000 0.000000 
-10.217883 16.962379 -2.156141 22.995150 84.375593 22.249669 -10.419927 1.694464 1.139677 -13.787011 11.130626 -23.560906 -1.906973 0.582747 24.799297 1.721062 10.596470 -6.778353 0.147800 0.000000 -14.772400 10.949829 -4.184245 -1.596860 -5.108386 -16.800304 5.060004 -0.735287 -3.126971 41.098045 -1.339573 -0.558683 25.011154 0.313500 -0.000000 -79.686100 -6.490103 -0.179772 -2.095833 -2.013200 0.163638 -2.829981 -5.976017 0.136703 2.252696 11.400646 -14.369677 -9.192255 -2.062468 -0.144894 -0.393313 0.000000 0.000000 0.000000 -3.433022 25.607419 -0.012231 -72.813342 24.906231 17.845290 -3.017276 -34.833344 -0.011500 -5.406861 2.094129 -0.103663 -0.026189 -0.108524 -0.000000 0.000000 0.000000 0.000000 0.000000 0.000000 0.000000 14.615684 -8.956293 -0.620626 55.721352 4.717056 13.605807 2.317763 45.756249 0.012526 4.252814 4.727181 0.178091 0.046554 -0.098977 0.000000 0.000000 0.000000 0.000000 0.000000 0.000000 0.000000 
